<?xml version="1.0" encoding="utf-8"?>
<!-- Generator: Adobe Illustrator 23.0.4, SVG Export Plug-In . SVG Version: 6.00 Build 0)  -->
<svg version="1.1" id="Ebene_1" xmlns="http://www.w3.org/2000/svg" xmlns:xlink="http://www.w3.org/1999/xlink" x="0px" y="0px"
	 viewBox="0 0 200 200" style="enable-background:new 0 0 200 200;" xml:space="preserve">
<style type="text/css">
	.st0{fill:#E4032E;}
</style>
<path class="st0" d="M99.7,199.4c-54.9,0-99.5-44.5-99.5-99.5l0-1.2c0-1.7,0.1-3.3,0.2-5C3.6,41.4,47.2,0.4,99.5,0.4
	c2.1,0,4.2,0.1,6.3,0.2c26.5,1.7,50.8,13.5,68.4,33.5c17.6,19.9,26.4,45.5,24.7,72c-1.2,19.7-8.3,38.6-20.2,54.2
	c4.1-20.1,2.7-43.7-4-63l-28.5,0v2.8c0,25.2-20.5,45.7-45.7,45.7s-45.7-20.5-45.7-45.7s20.5-45.7,45.7-45.7c9.1,0,18,2.7,25.5,7.8
	l2.3,1.5L144.3,40l-2.3-1.6c-12.3-8.3-26.7-12.7-41.6-12.7c-41,0-74.4,33.4-74.4,74.4s33.4,74.4,74.4,74.4c18.6,0,36.4-7,50.1-19.5
	c-2.5,29.3-24.7,43.9-49.7,44.5L99.7,199.4z"/>
</svg>
